<svg width="32" height="32" viewBox="0 0 32 32" fill="none" xmlns="http://www.w3.org/2000/svg">
  <path d="M16 2L19.2942 3.20615L22.2796 5.00545L24.7224 7.32603L26.4641 10.0641L27.372 13.0626L27.372 16.0836L26.4641 19.0822L24.7224 21.8202L22.2796 24.1408L19.2942 25.9401L16 27.1462L12.7058 25.9401L9.72038 24.1408L7.27762 21.8202L5.53588 19.0822L4.62804 16.0836L4.62804 13.0626L5.53588 10.0641L7.27762 7.32603L9.72038 5.00545L12.7058 3.20615L16 2Z" stroke="#D4AF37" stroke-width="2"/>
  <path d="M16 7L17.465 10.9463H21.6298L18.0824 13.3574L19.5474 17.3037L16 14.8926L12.4526 17.3037L13.9176 13.3574L10.3702 10.9463H14.535L16 7Z" fill="#D4AF37"/>
</svg>